<svg viewBox="0 0 20 33" fill="none" xmlns="http://www.w3.org/2000/svg">
<path d="M0.526384 15.2123L15.2118 0.527191C15.5515 0.187267 16.0049 0 16.4883 0C16.9718 0 17.4252 0.187267 17.7649 0.527191L18.8463 1.6084C19.5501 2.31293 19.5501 3.458 18.8463 4.16145L6.51463 16.4932L18.86 28.8385C19.1997 29.1785 19.3872 29.6316 19.3872 30.1148C19.3872 30.5985 19.1997 31.0517 18.86 31.3919L17.7785 32.4728C17.4386 32.8127 16.9855 33 16.502 33C16.0186 33 15.5651 32.8127 15.2255 32.4728L0.526384 17.7742C0.185925 17.4332 -0.00107384 16.978 0 16.494C-0.00107384 16.0081 0.185925 15.5531 0.526384 15.2123Z" fill="#D7D7D7"/>
</svg>
