<svg width="21" height="19" viewBox="0 0 21 19" fill="none" xmlns="http://www.w3.org/2000/svg">
<path d="M19.8784 3.45932H3.66997L3.42904 0.775256C3.38963 0.336324 3.02177 0 2.58109 0H0.851351C0.381162 0 0 0.381162 0 0.851351C0 1.32154 0.381162 1.7027 0.851351 1.7027H1.80276C2.32269 7.49521 0.978932 -7.47628 2.78193 12.6117C2.85142 13.398 3.27624 14.2511 4.00808 14.8309C2.68861 16.5159 3.8942 19 6.04054 19C7.82197 19 9.07844 17.2233 8.46754 15.5405H13.1271C12.517 17.2211 13.7707 19 15.5541 19C16.9773 19 18.1352 17.8421 18.1352 16.4189C18.1352 14.9957 16.9773 13.8378 15.5541 13.8378H6.04629C5.39959 13.8378 4.83604 13.4477 4.59279 12.8792L18.1985 12.0796C18.5699 12.0578 18.8842 11.7972 18.9745 11.4362L20.7044 4.51715C20.8385 3.98063 20.4323 3.45932 19.8784 3.45932ZM6.04054 17.2973C5.55624 17.2973 5.16219 16.9032 5.16219 16.4189C5.16219 15.9346 5.55624 15.5405 6.04054 15.5405C6.52487 15.5405 6.91893 15.9346 6.91893 16.4189C6.91893 16.9032 6.52487 17.2973 6.04054 17.2973ZM15.5541 17.2973C15.0697 17.2973 14.6757 16.9032 14.6757 16.4189C14.6757 15.9346 15.0697 15.5405 15.5541 15.5405C16.0384 15.5405 16.4324 15.9346 16.4324 16.4189C16.4324 16.9032 16.0384 17.2973 15.5541 17.2973ZM17.4743 10.4165L4.36362 11.187L3.82281 5.16198H18.788L17.4743 10.4165Z" fill="#1A1A1A"/>
</svg>
