<svg width="93" height="27" viewBox="0 0 93 27" fill="none" xmlns="http://www.w3.org/2000/svg">
<path d="M8.632 26.432C6.928 26.432 5.356 26.12 3.916 25.496C2.5 24.848 1.336 23.936 0.424 22.76L3.664 18.872C5.032 20.72 6.592 21.644 8.344 21.644C10.72 21.644 11.908 20.252 11.908 17.468V5.48H3.052V0.799998H17.704V17.144C17.704 20.24 16.936 22.568 15.4 24.128C13.864 25.664 11.608 26.432 8.632 26.432ZM41.9686 12.896C43.4086 13.352 44.5366 14.12 45.3526 15.2C46.1686 16.256 46.5766 17.564 46.5766 19.124C46.5766 21.332 45.7126 23.036 43.9846 24.236C42.2806 25.412 39.7846 26 36.4966 26H23.4646V0.799998H35.7766C38.8486 0.799998 41.2006 1.388 42.8326 2.564C44.4886 3.74 45.3166 5.336 45.3166 7.352C45.3166 8.576 45.0166 9.668 44.4166 10.628C43.8406 11.588 43.0246 12.344 41.9686 12.896ZM29.2606 5.192V11.132H35.0566C36.4966 11.132 37.5886 10.88 38.3326 10.376C39.0766 9.872 39.4486 9.128 39.4486 8.144C39.4486 7.16 39.0766 6.428 38.3326 5.948C37.5886 5.444 36.4966 5.192 35.0566 5.192H29.2606ZM36.0646 21.608C37.6006 21.608 38.7526 21.356 39.5206 20.852C40.3126 20.348 40.7086 19.568 40.7086 18.512C40.7086 16.424 39.1606 15.38 36.0646 15.38H29.2606V21.608H36.0646ZM69.5679 16.388C69.5679 16.46 69.5319 16.964 69.4599 17.9H54.8079C55.0719 19.1 55.6959 20.048 56.6799 20.744C57.6639 21.44 58.8879 21.788 60.3519 21.788C61.3599 21.788 62.2479 21.644 63.0159 21.356C63.8079 21.044 64.5399 20.564 65.2119 19.916L68.1999 23.156C66.3759 25.244 63.7119 26.288 60.2079 26.288C58.0239 26.288 56.0919 25.868 54.4119 25.028C52.7319 24.164 51.4359 22.976 50.5239 21.464C49.6119 19.952 49.1559 18.236 49.1559 16.316C49.1559 14.42 49.5999 12.716 50.4879 11.204C51.3999 9.668 52.6359 8.48 54.1959 7.64C55.7799 6.776 57.5439 6.344 59.4879 6.344C61.3839 6.344 63.0999 6.752 64.6359 7.568C66.1719 8.384 67.3719 9.56 68.2359 11.096C69.1239 12.608 69.5679 14.372 69.5679 16.388ZM59.5239 10.592C58.2519 10.592 57.1839 10.952 56.3199 11.672C55.4559 12.392 54.9279 13.376 54.7359 14.624H64.2759C64.0839 13.4 63.5559 12.428 62.6919 11.708C61.8279 10.964 60.7719 10.592 59.5239 10.592ZM92.2788 16.388C92.2788 16.46 92.2428 16.964 92.1708 17.9H77.5188C77.7828 19.1 78.4068 20.048 79.3908 20.744C80.3748 21.44 81.5988 21.788 83.0628 21.788C84.0708 21.788 84.9588 21.644 85.7268 21.356C86.5188 21.044 87.2508 20.564 87.9228 19.916L90.9108 23.156C89.0868 25.244 86.4228 26.288 82.9188 26.288C80.7348 26.288 78.8028 25.868 77.1228 25.028C75.4428 24.164 74.1468 22.976 73.2348 21.464C72.3228 19.952 71.8668 18.236 71.8668 16.316C71.8668 14.42 72.3108 12.716 73.1988 11.204C74.1108 9.668 75.3468 8.48 76.9068 7.64C78.4908 6.776 80.2548 6.344 82.1988 6.344C84.0948 6.344 85.8108 6.752 87.3468 7.568C88.8828 8.384 90.0828 9.56 90.9468 11.096C91.8348 12.608 92.2788 14.372 92.2788 16.388ZM82.2348 10.592C80.9628 10.592 79.8948 10.952 79.0308 11.672C78.1668 12.392 77.6388 13.376 77.4468 14.624H86.9868C86.7948 13.4 86.2668 12.428 85.4028 11.708C84.5388 10.964 83.4828 10.592 82.2348 10.592Z" fill="#1A1A1A"/>
</svg>
