<svg width="19" height="19" viewBox="0 0 19 19" fill="none" xmlns="http://www.w3.org/2000/svg">
<path d="M13.2368 11.2746C15.5632 8.05397 14.7851 3.59438 11.5001 1.31418C8.21507 -0.966012 3.66627 -0.203768 1.34047 3.01738C-0.985335 6.23798 -0.207844 10.697 3.07774 12.9772C5.42244 14.6047 8.5224 14.73 10.9955 13.2981L16.369 18.5347C16.9492 19.1335 17.9145 19.1575 18.5253 18.5886C19.1361 18.0204 19.1605 17.0739 18.5809 16.4752C18.5625 16.4561 18.5448 16.4387 18.5253 16.4207L13.2368 11.2746ZM7.28419 11.7628C4.68829 11.7633 2.58368 9.70159 2.58201 7.1566C2.58145 4.61161 4.6844 2.54827 7.28086 2.54718C9.87342 2.54609 11.9769 4.60453 11.9819 7.14625C11.9864 9.69178 9.88454 11.7584 7.28753 11.7628C7.28642 11.7628 7.28586 11.7628 7.28419 11.7628Z" fill="#1A1A1A"/>
</svg>
