<svg width="16" height="19" viewBox="0 0 16 19" fill="none" xmlns="http://www.w3.org/2000/svg">
<path d="M10.3346 7.10455L10.3347 7.1045C11.0369 6.40234 11.3824 5.56818 11.3824 4.57601C11.3824 3.58442 11.037 2.75012 10.3347 2.04764C10.3346 2.04759 10.3346 2.04753 10.3345 2.04747M10.3346 7.10455L4.5706 7.81175C3.68085 6.92215 3.22974 5.83352 3.22974 4.57601C3.22974 3.3188 3.68085 2.23017 4.57045 1.34057C5.46006 0.450962 6.54855 0 7.80606 0C9.06328 0 10.1519 0.450962 11.0417 1.34042L10.3345 2.04747M10.3346 7.10455C9.63254 7.80677 8.79812 8.15232 7.80606 8.15232C6.81445 8.15232 5.98006 7.80674 5.27764 7.10458L10.3346 7.10455ZM10.3345 2.04747C9.63218 1.34546 8.79785 1 7.80606 1C6.81389 1 5.97972 1.34552 5.27756 2.04767C4.57534 2.74989 4.22974 3.58422 4.22974 4.57601C4.22974 5.56809 4.57534 6.40237 5.27759 7.10453L10.3345 2.04747Z" fill="white" stroke="#1A1A1A" stroke-width="2"/>
<path d="M14.8158 14.68L14.8157 14.6791C14.7929 14.3506 14.7462 13.983 14.6751 13.5861L14.8158 14.68ZM14.8158 14.68C14.8394 15.0172 14.8516 15.3714 14.8517 15.7323L14.8158 14.68ZM14.4117 12.5074L14.4117 12.5072C14.3107 12.1916 14.172 11.876 13.9985 11.5709L14.8679 11.0767L13.9985 11.5709C13.8269 11.2689 13.6332 11.0201 13.4285 10.8242L13.4283 10.8241C13.2353 10.6394 12.9866 10.4789 12.6766 10.3559C12.4036 10.248 12.0879 10.1846 11.7312 10.1784C11.7156 10.1861 11.6937 10.1975 11.6643 10.2141C11.616 10.2416 11.5545 10.2792 11.4744 10.3313L10.9288 9.49331M14.4117 12.5074L9.45935 11.3859C9.9217 11.2366 10.3454 11.0566 10.6914 10.8362L10.6924 10.8355C10.9855 10.6483 11.2489 10.4784 11.4751 10.3309L10.9288 9.49331M14.4117 12.5074C14.5156 12.8317 14.6048 13.1945 14.675 13.5858L14.4117 12.5074ZM10.9288 9.49331C10.7059 9.6387 10.4451 9.80685 10.154 9.99283L14.1196 10.1015C13.8243 9.81903 13.4628 9.59188 13.0448 9.42619C12.6282 9.26137 12.1665 9.17788 11.6726 9.17788C11.4786 9.17788 11.2911 9.25746 10.9288 9.49331ZM5.15948 10.836L5.15882 10.8356C4.86866 10.6502 4.60519 10.4804 4.37588 10.331L4.37568 10.3309C4.29579 10.2788 4.23442 10.2412 4.18624 10.2139C4.15704 10.1973 4.13524 10.1859 4.11961 10.1782C3.76289 10.1845 3.44741 10.248 3.1745 10.3561L3.17435 10.3561C2.86482 10.4787 2.61609 10.6391 2.42277 10.824L5.15948 10.836ZM5.15948 10.836C5.50548 11.0568 5.92954 11.2368 6.39152 11.386L5.15948 10.836ZM1.85281 11.5705L1.85275 11.5706C1.67932 11.8759 1.54064 12.1914 1.43954 12.5072L1.85281 11.5705ZM1.85281 11.5705C2.0238 11.2694 2.21752 11.0206 2.42257 10.8242L1.85281 11.5705ZM1.0356 14.6794L1.03558 14.6797C1.01203 15.0191 1 15.3733 1 15.7324C1 16.4968 1.23428 17.0214 1.62668 17.3952C2.02427 17.7733 2.5749 18 3.35157 18H12.5002C13.277 18 13.8275 17.7734 14.2252 17.3949L14.2252 17.3948C14.6173 17.0218 14.8516 16.4974 14.8517 15.7326L1.0356 14.6794ZM1.0356 14.6794C1.05838 14.3499 1.10514 13.9823 1.1762 13.5861L1.0356 14.6794ZM7.92543 11.6327C8.44199 11.6327 8.95813 11.5481 9.45885 11.3861L6.39172 11.3861C6.89269 11.548 7.40868 11.6327 7.92543 11.6327ZM1.17621 13.586C1.24644 13.1948 1.33565 12.8321 1.43945 12.5074L1.17621 13.586Z" fill="white" stroke="#1A1A1A" stroke-width="2"/>
</svg>
